<?xml version="1.0" encoding="iso-8859-1"?>
<!-- Generator: Adobe Illustrator 24.0.1, SVG Export Plug-In . SVG Version: 6.00 Build 0)  -->
<svg version="1.1" id="Calque_1" xmlns="http://www.w3.org/2000/svg" xmlns:xlink="http://www.w3.org/1999/xlink" x="0px" y="0px"
	 viewBox="0 0 1000 1000" style="enable-background:new 0 0 1000 1000;" xml:space="preserve">
<g>
	
		<rect x="355.237" y="586.275" transform="matrix(0.689 -0.7248 0.7248 0.689 -333.1168 468.4876)" style="fill:#7077AF;" width="48.137" height="72.207"/>
	<path style="fill:#7077AF;" d="M428.853,552.778l-25.109,26.414l17.45,16.593l25.109-26.414c-3.057-2.608-6.055-5.288-8.957-8.051
		C434.441,558.563,431.613,555.704,428.853,552.778z"/>
	<path style="fill:#7077AF;" d="M229.752,727.31c-13.762,14.468-13.179,37.287,1.292,51.03c14.472,13.771,37.292,13.179,51.03-1.288
		l90.23-94.91l-52.332-49.747L229.752,727.31z"/>
	<path style="fill:#7077AF;" d="M581.537,418.335h7.458c2.06,0,3.728-1.67,3.728-3.73c0-2.06-1.669-3.728-3.728-3.728h-7.458
		c-2.06,0-3.73,1.669-3.73,3.728C577.807,416.664,579.477,418.335,581.537,418.335z"/>
	<path style="fill:#7077AF;" d="M668.939,731.129c-51.189-15.743-104.632-24.289-159.084-25.251V942.38
		C579.607,884.214,633.578,811.833,668.939,731.129z"/>
	<rect x="596.453" y="496.647" style="fill:#7077AF;" width="7.458" height="7.458"/>
	<path style="fill:#7077AF;" d="M459.203,56.158c-103.599,9.226-199.794,53.919-274.326,128.223
		c41.343,27.032,85.582,48.418,131.776,63.884C350.258,176.087,398.42,110.701,459.203,56.158z"/>
	<path style="fill:#7077AF;" d="M308.208,267.263c-48.384-16.38-94.678-39.038-137.878-67.681
		C97.387,279.337,56.423,381.262,53.97,489.648h207.275C262.57,412.043,278.774,336.764,308.208,267.263z"/>
	<path style="fill:#7077AF;" d="M539.802,943.842c103.83-9.247,200.227-54.113,274.829-128.714c3.088-3.088,6.11-6.226,9.096-9.388
		c-42.192-28.797-87.544-51.61-135.024-68.131C654.939,815.386,604.527,885.762,539.802,943.842z"/>
	<path style="fill:#7077AF;" d="M806.831,489.648h138.204c-2.454-108.387-43.419-210.314-116.363-290.068
		c-23.205,15.386-47.31,29.028-72.145,40.915c-2.378-2.462-4.805-4.888-7.302-7.261l0.001,0.001
		c-2.895-2.752-5.847-5.421-8.853-8.008c25.415-11.731,50.06-25.358,73.751-40.848c-74.532-74.302-170.726-118.994-274.324-128.22
		c39.34,35.301,73.385,75.149,101.626,118.436c-9.294-2.205-18.751-3.846-28.332-4.909C584.14,128.451,549.559,90.73,509.855,57.621
		v123.335c-7.033,2.41-13.941,5.151-20.703,8.218V57.62c-65.596,54.699-117.236,121.969-152.566,196.911
		c18.786,5.533,37.868,10.096,57.181,13.685c-4.285,6.073-8.281,12.331-11.965,18.76c-18.146-3.635-36.089-8.09-53.774-13.391
		c-28.842,67.47-44.741,140.626-46.076,216.062h84.518c2.728,7.037,5.797,13.946,9.196,20.703h-93.714
		c0.538,30.403,3.445,60.435,8.609,89.875l-17.582,18.498c-7.132-35.358-11.106-71.604-11.733-108.373H53.97
		c2.352,103.894,40.078,201.86,107.446,280.045c0.481-0.499,1.019-0.957,1.613-1.363c5.747-3.933,11.555-7.751,17.413-11.468
		c2.216,6.607,5.315,12.88,9.205,18.696c-4.826,3.088-9.619,6.242-14.366,9.482c2.985,3.161,6.006,6.297,9.093,9.385
		c74.601,74.601,170.998,119.467,274.828,128.714c-51.094-45.849-93.259-99.365-125.367-158.131l15.013-15.792
		c34.611,65.139,81.926,123.781,140.303,172.46V705.877c-29.42,0.519-58.541,3.273-87.176,8.16l23.152-24.353
		c21.142-2.631,42.507-4.143,64.024-4.51v-65.816c6.774,3.072,13.685,5.806,20.703,8.218v57.599
		c57.213,0.976,113.354,10.035,167.08,26.757c13.332-33.716,23.479-68.759,30.244-104.721c8.222-4.888,16.16-10.27,23.757-16.139
		c-6.717,43.874-18.255,86.555-34.296,127.366c48.999,17.161,95.8,40.8,139.345,70.595c0.593,0.406,1.13,0.862,1.61,1.359
		c67.365-78.185,105.09-176.149,107.442-280.041H797.621C801.029,503.596,804.1,496.687,806.831,489.648z M465.586,584.022
		l-26.942,28.347l8.718,8.287c3.855,3.665,3.714,8.297,3.741,8.418c0.081,3.191-1.111,6.288-3.31,8.597l-148.269,155.96
		c-22.914,24.125-60.967,25.079-85.064,2.154c-24.125-22.914-25.074-60.963-2.15-85.064l148.25-155.969
		c4.581-4.819,12.205-5.008,17.019-0.431l8.718,8.287l26.946-28.347c-63.335-84.196-56.705-202.363,16.346-279.205
		c82.497-86.789,219.494-90.245,306.264-7.756c86.789,82.497,90.245,219.489,7.756,306.264
		C670.386,630.599,552.651,642.865,465.586,584.022z"/>
	<path style="fill:#7077AF;" d="M719.271,264.745c-77.141-73.335-198.913-70.242-272.235,6.895
		c-72.327,76.081-71.34,197.874,6.895,272.235c77.344,73.532,199.078,70.068,272.235-6.895
		C799.501,459.839,796.407,338.067,719.271,264.745z M708.715,520.401c-64.008,67.334-170.867,70.036-238.21,6.023
		c-67.503-64.173-70.196-170.707-6.033-238.21c64.017-67.325,170.881-70.031,238.219-6.033
		C770.185,346.34,772.847,452.937,708.715,520.401z"/>
	<path style="fill:#7077AF;" d="M499.502,12.411C230.214,12.411,11.913,230.712,11.913,500s218.301,487.589,487.589,487.589
		S987.091,769.288,987.091,500S768.79,12.411,499.502,12.411z M829.27,829.768c-42.826,42.826-92.7,76.451-148.236,99.94
		c-57.502,24.322-118.577,36.654-181.532,36.654s-124.03-12.332-181.533-36.654c-55.535-23.489-105.409-57.114-148.236-99.94
		c-42.826-42.828-76.451-92.701-99.941-148.236c-24.321-57.503-36.653-118.579-36.653-181.533s12.332-124.03,36.653-181.532
		c23.49-55.535,57.115-105.409,99.941-148.235c42.827-42.826,92.7-76.451,148.236-99.941
		c57.503-24.321,118.579-36.653,181.533-36.653s124.03,12.332,181.532,36.653c55.536,23.49,105.409,57.115,148.236,99.941
		s76.451,92.7,99.94,148.235c24.322,57.503,36.654,118.578,36.654,181.532s-12.332,124.03-36.654,181.533
		C905.721,737.067,872.097,786.94,829.27,829.768z"/>
	<path style="fill:#7077AF;" d="M686.113,299.627c-57.724-54.854-149.321-52.534-204.195,5.172
		c-55.006,57.869-52.679,149.184,5.176,204.181c57.72,54.868,149.312,52.553,204.176-5.162
		C746.262,445.972,743.934,354.596,686.113,299.627z M550.958,295.272h22.002l10.236,6.832c1.254,0.835,2.887,0.835,4.139,0
		l10.238-6.832h22.02l6.023,26.105h-80.698L550.958,295.272z M543.193,328.835h84.144l1.719,7.458h-87.582L543.193,328.835z
		 M581.537,507.834h-37.291v-37.291h-7.458v37.291h-14.917v-52.208c0.003-9.565,4.08-18.674,11.209-25.049l11.697,19.496
		c0.42,0.697,1.056,1.239,1.81,1.544l14.886,5.966l-5.648,11.292c-0.822,1.643-0.326,3.641,1.171,4.706l24.541,17.527V507.834z
		 M638.346,414.605l-18.34,30.579l-10.891,4.349l14.171-28.581c1.166-1.098,2.272-2.256,3.315-3.472
		c0.806-0.924,1.552-1.891,2.253-2.875H638.346z M637.473,384.772v-14.917c4.119,0,7.458,3.339,7.458,7.458
		C644.931,381.432,641.592,384.772,637.473,384.772z M596.453,458.237v-5.733l3.539-10.616c0.446-1.341,0.097-2.817-0.902-3.816
		l-4.924-4.922c5.754-0.224,11.41-1.547,16.666-3.897L596.453,458.237z M606.612,469.36l-11.375,8.126l7.685-15.499L606.612,469.36z
		 M630.015,364.583l-7.966,7.964c-1.249-3.814-4.8-6.403-8.816-6.42h-14.917c-5.149,0-9.322,4.173-9.322,9.322v1.865h-7.458v-1.865
		c0-5.149-4.174-9.322-9.323-9.322h-14.917c-4.015,0.018-7.567,2.606-8.816,6.42l-7.966-7.964v-5.914h89.499V364.583z
		 M615.098,375.45v11.187c0,1.03-0.834,1.865-1.865,1.865h-14.915c-1.031,0-1.865-0.835-1.865-1.865V375.45
		c0-1.031,0.833-1.865,1.865-1.865h14.915C614.265,373.585,615.098,374.42,615.098,375.45z M574.079,375.45v11.187
		c0,1.03-0.835,1.865-1.865,1.865h-14.917c-1.03,0-1.865-0.835-1.865-1.865V375.45c0-1.031,0.835-1.865,1.865-1.865h14.917
		C573.243,373.585,574.079,374.42,574.079,375.45z M547.974,382.587v4.049c0,5.149,4.174,9.323,9.323,9.323h14.917
		c5.149,0,9.323-4.174,9.323-9.323v-1.865h7.458v1.865c0,5.149,4.174,9.323,9.323,9.323h14.917c5.149,0,9.322-4.174,9.322-9.323
		v-4.049l7.458-7.458v12.962c0,0.002,0,0.005,0,0.006c-0.002,20.821-16.88,37.697-37.702,37.695h-14.096h-0.006
		c-20.821-0.002-37.697-16.882-37.695-37.702v-12.962L547.974,382.587z M592.187,441.716l-2.152,6.451h-9.539l-2.152-6.451
		l6.921-6.922L592.187,441.716z M570.538,441.877l3.54,10.616v5.744l-14.38-28.972c5.256,2.345,10.913,3.665,16.665,3.886
		l-4.922,4.911C570.443,439.06,570.094,440.536,570.538,441.877z M575.293,477.487l-11.373-8.126l3.688-7.372L575.293,477.487z
		 M541.706,414.616c0.697,0.984,1.438,1.951,2.236,2.875c1.043,1.216,2.15,2.374,3.316,3.472l14.171,28.579l-10.904-4.359
		l-18.34-30.568H541.706z M533.057,384.772c-4.119,0-7.458-3.339-7.458-7.458c0-4.119,3.339-7.458,7.458-7.458V384.772z
		 M585.265,480.798l-3.728-7.518v-17.654h7.458v17.654L585.265,480.798z M648.661,507.834h-14.917v-37.291h-7.458v37.291h-37.291
		v-16.725l24.559-17.531c1.495-1.067,1.991-3.06,1.171-4.703l-5.668-11.277l14.887-5.966c0.754-0.305,1.388-0.847,1.808-1.544
		l11.699-19.496c7.124,6.372,11.201,15.476,11.209,25.034V507.834z M663.578,351.21H506.953c-2.058,0-3.728-1.67-3.728-3.73
		c0-2.06,1.67-3.728,3.728-3.728h156.625c2.06,0,3.728,1.669,3.728,3.728C667.306,349.54,665.637,351.21,663.578,351.21z"/>
</g>
</svg>
